<?xml version="1.0" standalone="no"?>
<!DOCTYPE svg PUBLIC "-//W3C//DTD SVG 20010904//EN"
 "http://www.w3.org/TR/2001/REC-SVG-20010904/DTD/svg10.dtd">
<svg version="1.0" xmlns="http://www.w3.org/2000/svg"
 width="700.000000pt" height="700.000000pt" viewBox="0 0 700.000000 700.000000"
 preserveAspectRatio="xMidYMid meet">
<metadata>
Created by potrace 1.11, written by Peter Selinger 2001-2013
</metadata>
<g transform="translate(0.000000,700.000000) scale(0.100000,-0.100000)"
fill="#000000" stroke="none">
<path d="M2127 6184 c-1 -1 -69 -5 -152 -8 -82 -4 -159 -9 -170 -10 -53 -7
-132 -19 -150 -22 -656 -121 -1088 -465 -1348 -1074 -89 -210 -152 -438 -196
-715 -45 -278 -56 -444 -56 -840 0 -282 7 -491 20 -566 2 -13 6 -46 9 -74 15
-138 39 -291 63 -390 8 -34 7 -29 17 -75 18 -82 72 -253 113 -360 220 -571
621 -937 1189 -1085 55 -14 115 -28 134 -31 19 -3 42 -7 50 -9 28 -8 155 -24
240 -31 150 -11 488 -6 591 11 13 2 51 6 84 10 32 4 67 8 76 10 9 2 34 6 55 9
22 3 85 16 142 27 l102 22 0 483 c0 541 7 497 -70 473 -326 -98 -654 -114
-885 -44 -393 120 -600 507 -652 1220 -16 206 -8 881 11 980 2 11 7 51 11 89
20 196 86 438 156 578 63 125 131 211 229 290 80 63 225 128 325 144 21 3 47
8 59 11 11 3 80 6 152 7 117 3 191 -2 304 -19 62 -9 235 -47 250 -55 8 -5 36
-11 63 -15 l47 -7 0 483 0 484 -77 17 c-84 19 -225 43 -313 54 -30 4 -66 8
-80 10 -41 5 -340 21 -343 18z"/>
<path d="M3600 6128 c-1 -17 -1 -5157 0 -5180 0 -17 36 -18 605 -18 l605 0 0
163 c1 89 2 430 3 757 l2 595 185 1 c182 1 412 10 460 19 14 2 43 6 65 9 106
14 157 24 230 43 33 8 65 16 70 17 6 2 33 10 60 18 319 100 593 306 773 582
125 192 223 467 261 731 7 44 14 94 16 110 9 59 18 242 18 345 0 897 -337
1476 -988 1698 -157 54 -305 84 -525 109 -30 4 -457 8 -947 10 -732 4 -893 2
-893 -9z m1625 -961 c11 -3 42 -10 70 -17 226 -51 349 -259 382 -640 13 -154
6 -446 -12 -535 -3 -11 -7 -36 -9 -55 -3 -19 -15 -66 -26 -105 -56 -196 -161
-318 -317 -369 -81 -26 -101 -28 -305 -33 l-196 -5 0 885 0 886 197 -4 c108
-2 205 -6 216 -8z"/>
</g>
</svg>
